# xmcd
#
# Track frame offsets:
#	182
#	18907
#	39667
#	56127
#	78257
#	99615
#	114192
#	131670
#	150477
#	167462
#	189245
#	206100
#	228115
#	240697
#
# Disc length: 3444 seconds
#
# Revision: 2
# Processed by: cddbd v1.5.2PL0 Copyright (c) Steve Scherf et al.
# Submitted via: audiograbber 1.83.01
#
DISCID=a70d720e
DTITLE=Various Artist - Melodies of Love
DYEAR=1996
DGENRE=Lovesongs
TTITLE0=Level 42 - With a little Love
TTITLE1=Eurythmics - Miracle of Love
TTITLE2=Bonnie Tyler - Against the Wind
TTITLE3=Eric Carmen - All by myself
TTITLE4=Air Supply - Just as I am
TTITLE5=The Mamas and The Papas - Dream a little Dream of me
TTITLE6=Friends Of Charlotta - These are the Times
TTITLE7=Chris Norman - Midnight Lady
TTITLE8=Blue System - When Sarah smiles
TTITLE9=Starship - Sara
TTITLE10=Restless Heart - When she cries
TTITLE11=Wishful Thinking - Hiroshima
TTITLE12=Al Martino - Spanish Eyes
TTITLE13=Energy Orchard - It's all over now Baby Blue
EXTD=BMG Ariola Express - ADD
EXTT0=
EXTT1=
EXTT2=
EXTT3=
EXTT4=
EXTT5=
EXTT6=
EXTT7=
EXTT8=
EXTT9=
EXTT10=
EXTT11=
EXTT12=
EXTT13=
PLAYORDER=
